{"title":"True Detective S01 Opening Intro 1080i HDTV MPEG2 DD5.1-CtrlHD","uid":9676126,"size":167820080,"categoryP":"video","categoryS":"hd___tv_shows","magnet":"?xt=urn:btih:3dfcf92e551b979651dd53bec06ab78d815f52a2&amp;dn=True+Detective+S01+Opening+Intro+1080i+HDTV+MPEG2+DD5.1-CtrlHD&amp;tr=udp%3A%2F%2Ftracker.openbittorrent.com%3A80&amp;tr=udp%3A%2F%2Fopen.demonii.com%3A1337&amp;tr=udp%3A%2F%2Ftracker.coppersurfer.tk%3A6969&amp;tr=udp%3A%2F%2Fexodus.desync.com%3A6969","seeders":3,"leechers":0,"uploader":"HDfan2","files":1,"time":1393565010,"description":"Format                           : MPEG-TS\nFile size                        : 160 MiB\nDuration                         : 1mn 37s\nOverall bit rate mode            : Variable\nOverall bit rate                 : 13.8 Mbps\n\nVideo\nID                               : 33 (0x21)\nMenu ID                          : 1 (0x1)\nFormat                           : MPEG Video\nFormat version                   : Version 2\nFormat profile                   : Main@High\nFormat settings, BVOP            : Yes\nFormat settings, Matrix          : Default\nCodec ID                         : 2\nDuration                         : 1mn 37s\nBit rate mode                    : Variable\nBit rate                         : 12.7 Mbps\nMaximum bit rate                 : 38.8 Mbps\nWidth                            : 1 920 pixels\nHeight                           : 1 080 pixels\nDisplay aspect ratio             : 16:9\nFrame rate                       : 29.970 fps\nColor space                      : YUV\nChroma subsampling               : 4:2:0\nBit depth                        : 8 bits\nCompression mode                 : Lossy\nBits/(Pixel*Frame)               : 0.204\nStream size                      : 147 MiB (92%)\n\nAudio\nID                               : 36 (0x24)\nMenu ID                          : 1 (0x1)\nFormat                           : AC-3\nFormat/Info                      : Audio Coding 3\nMode extension                   : CM (complete main)\nCodec ID                         : 129\nDuration                         : 1mn 37s\nBit rate mode                    : Constant\nBit rate                         : 384 Kbps\nChannel(s)                       : 6 channels\nChannel positions                : Front: L C R, Side: L R, LFE\nSampling rate                    : 48.0 KHz\nBit depth                        : 16 bits\nCompression mode                 : Lossy\nStream size                      : 4.46 MiB (3%)\nLanguage                         : English\n\nText #1\nID                               : 33 (0x21)-608-1\nMenu ID                          : 1 (0x1)\nFormat                           : EIA-608\nMuxing mode                      : A/53 / DTVCC Transport\nMuxing mode, more info           : Muxed in Video #1\nDuration                         : 1mn 37s\nBit rate mode                    : Constant\nStream size                      : 0.00 Byte (0%)\n\nText #2\nID                               : 33 (0x21)-1\nMenu ID                          : 1 (0x1)\nFormat                           : EIA-708\nMuxing mode                      : A/53 / DTVCC Transport\nMuxing mode, more info           : Muxed in Video #1\nDuration                         : 1mn 37s\nBit rate mode                    : Constant\nStream size                      : 0.00 Byte (0%)\n","torrent":{"xt":"urn:btih:3dfcf92e551b979651dd53bec06ab78d815f52a2","amp;dn":"True+Detective+S01+Opening+Intro+1080i+HDTV+MPEG2+DD5.1-CtrlHD","amp;tr":["udp%3A%2F%2Ftracker.openbittorrent.com%3A80","udp%3A%2F%2Fopen.demonii.com%3A1337","udp%3A%2F%2Ftracker.coppersurfer.tk%3A6969","udp%3A%2F%2Fexodus.desync.com%3A6969"],"infoHash":"3dfcf92e551b979651dd53bec06ab78d815f52a2","infoHashBuffer":{"type":"Buffer","data":[61,252,249,46,85,27,151,150,81,221,83,190,192,106,183,141,129,95,82,162]},"announce":[],"urlList":[]}}